<svg width="0"
     height="0"
     class="hidden">

    <symbol id="caret-left"
            viewBox="0 0 21 37"
            preserveAspectRatio="xMidYMid meet"
            xmlns="http://www.w3.org/2000/svg">
        <path d="M20.75 3.5C20.75 1.39062 18.1719 0.335938 16.6484 1.85938L1.64844 16.8594C0.710938 17.7969 0.710938 19.3203 1.64844 20.2578L16.6484 35.2578C18.1719 36.7812 20.75 35.7266 20.75 33.6172V3.5Z" />
    </symbol>

    <symbol id="caret-right"
            viewBox="0 0 21 37"
            preserveAspectRatio="xMidYMid meet"
            xmlns="http://www.w3.org/2000/svg">
        <path d="M0.25 33.6172C0.25 35.7266 2.71094 36.7812 4.23438 35.2578L19.2344 20.2578C20.1719 19.3203 20.1719 17.7969 19.2344 16.8594L4.23438 1.85938C2.71094 0.335938 0.25 1.39062 0.25 3.5V33.6172Z" />
    </symbol>

    <symbol id="arrow-left"
            viewBox="0 0 39 35"
            preserveAspectRatio="xMidYMid meet"
            xmlns="http://www.w3.org/2000/svg">
        <path d="M38.6641 17.5C38.6641 18.7031 37.7188 19.6484 36.6016 19.6484H7.38281L18.8125 30.4766C19.6719 31.25 19.6719 32.625 18.8984 33.3984C18.125 34.2578 16.8359 34.2578 15.9766 33.4844L0.851562 19.0469C0.421875 18.6172 0.25 18.1016 0.25 17.5C0.25 16.9844 0.421875 16.4688 0.851562 16.0391L15.9766 1.60156C16.8359 0.828125 18.125 0.828125 18.8984 1.6875C19.6719 2.46094 19.6719 3.83594 18.8125 4.60938L7.38281 15.4375H36.6016C37.8047 15.4375 38.6641 16.3828 38.6641 17.5Z" />
    </symbol>

    <symbol id="igold"
            viewBox="0 0 32 28"
            preserveAspectRatio="xMidYMid meet"
            xmlns="http://www.w3.org/2000/svg">
        <path d="M0 4.2097C0.355032 2.92953 1.39977 2.27221 2.49541 1.70106C4.18658 0.825868 6.0241 0.395042 7.91506 0.169781C10.2327 -0.119989 12.5837 -0.0426586 14.8757 0.398735C16.67 0.750781 18.4031 1.28008 19.9009 2.34853C20.2173 2.57767 20.507 2.83934 20.7649 3.12894C21.5132 3.96105 21.503 4.88425 20.7649 5.72374C20.0523 6.53616 19.1272 7.05192 18.1397 7.4729C16.2411 8.28162 14.2357 8.66198 12.178 8.79C9.64696 8.94879 7.14646 8.74691 4.70831 8.01943C3.5516 7.67354 2.44196 7.22302 1.45703 6.52385C0.772418 6.03148 0.20742 5.46279 0 4.63191V4.2097Z" />
        <path d="M0 9.16675C0.650257 9.50033 1.28652 9.86592 1.95459 10.1626C3.68012 10.927 5.50746 11.3418 7.3806 11.5843C8.86831 11.7666 10.3694 11.8255 11.8675 11.7603C12.3765 11.7431 12.8855 11.6902 13.4276 11.652C13.3863 11.7249 13.3408 11.7956 13.2914 11.8637C12.6316 12.669 12.0855 13.5556 11.6677 14.5004C11.6092 14.6333 11.5532 14.7306 11.361 14.7343C8.816 14.7835 6.31423 14.5127 3.9079 13.651C2.85935 13.2756 1.86678 12.8017 1.01801 12.0742C0.531558 11.6768 0.177382 11.1492 0 10.5577L0 9.16675Z" />
        <path d="M6.6746e-05 20.9565C1.00619 21.5612 2.07712 22.0585 3.19409 22.4398C4.91636 23.0131 6.70894 23.3652 8.52593 23.4873C9.45869 23.5513 10.3965 23.5415 11.3255 23.5723C11.3728 23.5714 11.4198 23.5799 11.4635 23.5972C11.5073 23.6146 11.5469 23.6405 11.58 23.6732C12.089 24.5755 12.598 25.4839 13.1172 26.4206C12.3931 26.4539 11.6207 26.5093 10.847 26.5191C8.50939 26.5499 6.22268 26.2508 4.01359 25.4839C3.09657 25.1829 2.23043 24.7528 1.4431 24.2074C0.76994 23.7249 0.215122 23.1574 -0.00756836 22.3475L6.6746e-05 20.9565Z" />
        <path d="M0 15.032C1.65427 16.098 3.48288 16.7282 5.40438 17.1455C7.03274 17.4885 8.69314 17.6691 10.3596 17.6846C10.4868 17.6846 10.6039 17.6846 10.7095 17.6846V20.5921C10.2539 20.5921 9.77675 20.6179 9.30974 20.5921C6.94413 20.4468 4.64723 20.0136 2.51958 18.9513C1.65427 18.5143 0.837317 17.9973 0.318129 17.164C0.192628 16.926 0.0862701 16.6791 0 16.4254L0 15.032Z" />
        <path d="M32.0001 19.1508C32.0018 20.8996 31.4675 22.6097 30.4646 24.0648C29.4618 25.5199 28.0354 26.6547 26.3658 27.3256C24.6963 27.9966 22.8586 28.1737 21.085 27.8345C19.3114 27.4952 17.6817 26.6549 16.4018 25.4198C15.1219 24.1846 14.2493 22.6101 13.8944 20.8953C13.5395 19.1805 13.7182 17.4024 14.4079 15.7859C15.0976 14.1693 16.2674 12.7869 17.7692 11.8133C19.2711 10.8398 21.0377 10.3189 22.8456 10.3164C24.0465 10.3146 25.2359 10.5418 26.346 10.9849C27.4561 11.4279 28.4651 12.0783 29.3152 12.8987C30.1654 13.7191 30.8401 14.6936 31.3008 15.7663C31.7615 16.8391 31.9991 17.9892 32.0001 19.1508Z" />
    </symbol>

    <symbol id="kit"
            viewBox="0 0 31 30"
            preserveAspectRatio="xMidYMid meet"
            xmlns="http://www.w3.org/2000/svg">
        <path d="M13.9582 29.6069C13.8148 29.5406 13.7153 29.4976 13.6176 29.4492C9.31504 27.2979 5.01039 25.1466 0.703647 22.9953C0.233952 22.7632 0 22.4109 0 21.8821C0.00358546 17.5795 0.00358546 13.2749 0 8.96811C0 8.89282 0.00717093 8.81752 0.0125491 8.70996C0.145211 8.77002 0.255464 8.81573 0.362132 8.86951C4.77584 11.0752 9.19074 13.279 13.6068 15.4811C13.8757 15.6156 13.9654 15.7644 13.9654 16.0637C13.9546 20.4464 13.9522 24.829 13.9582 29.2116V29.6069Z" />
        <path d="M16.1048 29.6017V29.2432C16.1048 24.8372 16.1024 20.4316 16.0977 16.0263C16.0977 15.752 16.1873 15.6193 16.4275 15.4983C20.8538 13.2944 25.2773 11.087 29.6982 8.87595C29.8049 8.82307 29.9151 8.77646 30.0568 8.70923V9.07584C30.0568 13.3246 30.0583 17.5734 30.0612 21.8222C30.0612 22.3905 29.83 22.7669 29.3217 23.0206C25.0066 25.1719 20.6936 27.3276 16.3827 29.4879C16.3083 29.5237 16.224 29.5524 16.1048 29.6017Z" />
        <path d="M28.9529 6.82844C28.8185 6.90283 28.7253 6.95841 28.6284 7.00771C24.198 9.22412 19.7676 11.442 15.3371 13.6614C15.2441 13.7167 15.1379 13.7458 15.0297 13.7458C14.9215 13.7458 14.8153 13.7167 14.7222 13.6614C12.9107 12.7445 11.0937 11.8391 9.27859 10.9293C9.18089 10.8809 9.08497 10.828 8.95142 10.7572C9.10021 10.681 9.20778 10.6245 9.31624 10.5708C13.727 8.36391 18.1377 6.15527 22.5484 3.94483C22.651 3.88409 22.768 3.85205 22.8872 3.85205C23.0064 3.85205 23.1235 3.88409 23.226 3.94483C25.0179 4.84209 26.8169 5.73845 28.6123 6.63482C28.7181 6.6895 28.8194 6.75135 28.9529 6.82844Z" />
        <path d="M1.09351 6.83278C1.26023 6.74314 1.36242 6.68219 1.47267 6.62841C5.76507 4.48131 10.0569 2.33213 14.3481 0.180847C14.8222 -0.0575859 15.2444 -0.0629641 15.7141 0.180847C17.194 0.938277 18.6856 1.6733 20.1727 2.42176C20.2623 2.46479 20.3412 2.5114 20.4604 2.58132C20.3331 2.65034 20.239 2.70501 20.1422 2.75431C15.7016 4.97372 11.2583 7.19342 6.81232 9.41342C6.68862 9.47527 6.49501 9.52815 6.38834 9.47616C4.63953 8.61207 2.8961 7.73452 1.09351 6.83278Z" />
    </symbol>

    <symbol id="super"
            viewBox="0 0 32 32"
            preserveAspectRatio="xMidYMid meet"
            xmlns="http://www.w3.org/2000/svg">
        <path d="M32 2.85454V7.6706C31.9757 7.74774 31.9559 7.82621 31.9405 7.90561C31.4771 11.1886 29.1265 13.6241 25.8773 14.1724C25.6761 14.2061 25.608 14.279 25.59 14.4858C25.5328 15.1477 25.507 15.8214 25.3606 16.4661C24.6648 19.5431 22.8832 21.7819 20.0418 23.1497C19.4297 23.4442 18.7682 23.6361 18.099 23.886C18.459 24.9686 18.8243 26.0703 19.1948 27.191H19.5471C20.5981 27.191 21.6496 27.191 22.7016 27.191C23.5345 27.191 24.0511 27.5615 24.3235 28.3425C24.6585 29.3045 24.9925 30.267 25.3254 31.23C25.4123 31.4838 25.482 31.7431 25.5602 32H6.4382C6.43713 31.9487 6.44213 31.8974 6.45307 31.8472C6.87576 30.6291 7.29062 29.4087 7.72975 28.2007C7.96458 27.5537 8.47024 27.2411 9.13872 27.2004C9.45182 27.1816 9.76493 27.1965 10.078 27.1965H12.8013L13.9159 23.8422C13.764 23.8014 13.6451 23.7709 13.5245 23.7372C10.4952 22.8614 8.36144 20.9714 7.12311 18.0673C6.64093 16.9314 6.43115 15.7368 6.40767 14.5069C6.40767 14.3166 6.36149 14.214 6.1431 14.1748C2.43517 13.5136 0.0039138 10.6011 0 6.83084C0 5.67148 0 4.51473 0 3.36059C0 2.15422 0.570632 1.58629 1.78391 1.58316C3.19288 1.58316 4.59558 1.58316 6.00142 1.58316H6.40532V0H25.6072V1.58237H26.0033C27.4122 1.58237 28.8149 1.57297 30.2208 1.59021C30.541 1.59352 30.8585 1.65017 31.1601 1.75785C31.654 1.93802 31.8505 2.38766 32 2.85454ZM19.198 15.9875C18.9428 14.9621 18.708 14.0126 18.4669 13.0679C18.4385 12.9803 18.4332 12.8869 18.4512 12.7967C18.4693 12.7064 18.5103 12.6223 18.5702 12.5525C19.2473 11.6673 19.9111 10.7727 20.578 9.88044C20.6367 9.8021 20.6883 9.71594 20.7737 9.58825H20.3823C19.497 9.58825 18.6117 9.58042 17.7272 9.59452C17.5033 9.59452 17.3976 9.52088 17.3107 9.32034C16.9381 8.45865 16.5499 7.61028 16.1656 6.75643C16.1249 6.65851 16.0708 6.56137 15.9988 6.4235C15.9268 6.56685 15.8744 6.66399 15.829 6.76426C15.4454 7.61811 15.0556 8.46962 14.6846 9.32896C14.5961 9.53341 14.4834 9.6 14.2642 9.59608C13.5464 9.58277 12.8279 9.5906 12.1093 9.5906H11.2256C11.314 9.72299 11.3672 9.80759 11.4267 9.88749C12.0936 10.7797 12.7574 11.6743 13.4329 12.5603C13.4934 12.6298 13.5344 12.7141 13.5519 12.8046C13.5694 12.8952 13.5626 12.9887 13.5324 13.0757C13.4102 13.5058 13.3093 13.9421 13.2012 14.3761C13.0737 14.8931 12.9484 15.4101 12.8099 15.9875C13.8188 15.4321 14.7668 14.9182 15.7061 14.3847C15.9229 14.2617 16.0841 14.268 16.2971 14.3886C17.2387 14.9182 18.189 15.4321 19.198 15.9875ZM25.6322 4.80196V11.0108C25.7739 10.9771 25.8874 10.9599 25.9931 10.9231C27.0373 10.5659 27.7934 9.87574 28.3163 8.91222C29.0263 7.60715 28.7461 6.19633 28.8095 4.80196H25.6322ZM3.19523 4.80196C3.19523 5.47878 3.20462 6.12269 3.19523 6.76583C3.17331 8.03329 3.61792 9.1057 4.53609 9.97209C5.04912 10.4686 5.68301 10.8221 6.3748 10.9975V4.79882L3.19523 4.80196Z" />
    </symbol>

    <symbol id="tank"
            viewBox="0 0 45 25"
            preserveAspectRatio="xMidYMid meet"
            xmlns="http://www.w3.org/2000/svg">
        <path d="M24.7007 15.2702C30.1014 15.2702 35.5071 15.2702 40.9178 15.2702C41.3668 15.2565 41.816 15.2821 42.2605 15.3467C43.6932 15.6077 44.4463 16.5739 44.7178 17.93C45.0178 19.4302 44.6743 20.7699 43.3481 21.6325C41.8944 22.5791 40.3477 23.3803 38.8641 24.2864C38.0482 24.7793 37.1074 25.0262 36.1547 24.9975C28.4107 24.9735 20.6667 24.9735 12.9227 24.9975C12.1554 25.0156 11.3985 24.8175 10.7384 24.4259C9.2472 23.5348 7.71851 22.7082 6.23781 21.8095C5.52402 21.3795 4.98085 20.716 4.70033 19.9313C4.41982 19.1466 4.41921 18.2891 4.69861 17.504C5.18168 16.0683 6.30982 15.2987 7.97804 15.2987C13.5518 15.2927 19.126 15.2927 24.7007 15.2987V15.2702ZM18.2754 20.1578C18.2815 19.818 18.2206 19.4803 18.0962 19.164C17.9718 18.8477 17.7863 18.559 17.5503 18.3143C17.3143 18.0697 17.0325 17.874 16.7208 17.7383C16.4092 17.6026 16.0739 17.5296 15.734 17.5235C15.3942 17.5174 15.0565 17.5783 14.7402 17.7027C14.4239 17.8271 14.1352 18.0126 13.8905 18.2486C13.6459 18.4845 13.4502 18.7664 13.3145 19.078C13.1788 19.3897 13.1058 19.725 13.0997 20.0648C13.0874 20.7512 13.3482 21.4143 13.8248 21.9083C14.3014 22.4024 14.9547 22.6868 15.641 22.6992C16.3274 22.7115 16.9905 22.4507 17.4845 21.9741C17.9786 21.4975 18.263 20.8442 18.2754 20.1578ZM32.7043 17.5175C32.363 17.5126 32.0243 17.5763 31.7081 17.7048C31.3919 17.8332 31.1047 18.0238 30.8635 18.2652C30.6224 18.5067 30.4321 18.7941 30.304 19.1104C30.1759 19.4268 30.1127 19.7656 30.1179 20.1068C30.1213 20.7859 30.3898 21.4369 30.8662 21.9209C31.3426 22.4048 31.9893 22.6836 32.6682 22.6977C33.3578 22.6978 34.0198 22.4274 34.5121 21.9446C35.0045 21.4619 35.2877 20.8052 35.3011 20.1158C35.3017 19.7746 35.2349 19.4365 35.1047 19.1211C34.9744 18.8057 34.7831 18.5191 34.5419 18.2777C34.3007 18.0364 34.0142 17.845 33.6988 17.7145C33.3835 17.584 33.0455 17.5171 32.7043 17.5175ZM21.6028 20.0678C21.599 20.4092 21.6626 20.748 21.79 21.0648C21.9173 21.3816 22.1058 21.6702 22.3448 21.914C22.5838 22.1579 22.8685 22.3522 23.1826 22.4859C23.4968 22.6196 23.8342 22.69 24.1756 22.6932C24.8633 22.6877 25.5214 22.4132 26.0091 21.9283C26.4967 21.4435 26.7751 20.7869 26.7845 20.0993C26.7841 19.419 26.5146 18.7665 26.0348 18.2842C25.555 17.8019 24.9039 17.529 24.2237 17.525C23.8827 17.5139 23.543 17.5717 23.2248 17.6948C22.9067 17.818 22.6166 18.004 22.372 18.2418C22.1273 18.4795 21.9331 18.7642 21.801 19.0787C21.6688 19.3932 21.6014 19.7312 21.6028 20.0723V20.0678Z" />
        <path d="M9.01644 9.83388C9.01644 9.32682 8.99994 8.91726 9.01644 8.50921C9.05095 7.83712 9.22197 7.6691 9.90156 7.60909C10.1251 7.58959 10.3516 7.59109 10.5751 7.59109H39.7749C39.979 7.59109 40.186 7.60159 40.39 7.6196C40.8806 7.6646 41.1296 7.94964 41.1401 8.4312C41.1506 8.91276 41.1401 9.35832 41.1401 9.90739C41.6607 9.90739 42.1032 9.90739 42.5443 9.90739C43.0409 9.90739 43.3199 10.1549 43.3244 10.6575C43.3319 11.6296 43.3244 12.6077 43.3244 13.5754C43.3244 14.1154 43.0139 14.3465 42.5143 14.3765C42.3088 14.3885 42.1032 14.3765 41.8962 14.3765C30.1637 14.3765 18.4302 14.3715 6.69564 14.3615C6.32344 14.3448 5.95215 14.4105 5.60829 14.5539C5.26442 14.6973 4.95645 14.9149 4.70638 15.1911C4.34784 15.5721 3.97279 15.9412 3.59324 16.2997C3.21369 16.6583 2.81914 16.6613 2.45009 16.2997C1.736 15.6006 1.0254 14.89 0.318313 14.1679C-0.0672376 13.7749 -0.0372337 13.3698 0.343816 12.9858C1.24393 12.0857 2.11255 11.1526 3.05617 10.3004C3.34121 10.0439 3.82277 9.90889 4.22182 9.89089C5.5855 9.82938 6.95218 9.84588 8.31885 9.83388H9.01644Z" />
        <path d="M13.4043 5.27919C13.1042 5.26118 12.8267 5.23268 12.5477 5.23268C10.6394 5.23268 8.73116 5.23268 6.82441 5.23268C6.63993 5.22156 6.45522 5.25054 6.28301 5.31761C6.11079 5.38468 5.95514 5.48827 5.82678 5.62123C5.57614 5.83785 5.25786 5.96039 4.92666 5.96778C3.61699 6.00528 2.30732 5.99028 0.997651 5.98128C0.30006 5.96928 0.037526 5.72925 0.0150231 5.03615C-0.0494853 2.96439 0.0150229 2.96289 1.85426 2.98389C2.8834 2.99589 3.91253 2.99889 4.93866 3.0409C5.19525 3.05261 5.44221 3.14208 5.64675 3.29743C6.00572 3.59639 6.46444 3.74858 6.93092 3.72348C8.88118 3.69948 10.8209 3.71298 12.7667 3.71298H13.3518C13.3983 3.63347 13.4298 3.60347 13.4328 3.57196C13.5288 2.2773 13.5438 2.34631 14.8129 2.25329C16.2801 2.14678 17.7353 1.87224 19.198 1.69672C19.9931 1.60221 20.7942 1.5572 21.5983 1.5002C21.8549 1.48069 22.1129 1.5002 22.3574 1.5002C22.6575 0 22.6575 0 24.1577 0C25.6579 0 27.1881 0 28.7033 0C29.7444 0 29.8359 0.100513 29.9499 1.13715C29.9604 1.22716 29.9829 1.31567 29.9964 1.38618C30.0549 1.41918 30.0894 1.45369 30.1194 1.45069C30.955 1.33817 31.3721 1.77773 31.6511 2.51133C31.9152 3.20892 32.2737 3.869 32.5903 4.54709C32.6533 4.68211 32.7163 4.81713 32.7688 4.95665C33.2323 6.1658 32.8768 6.71037 31.5986 6.71187C28.0072 6.71787 24.4152 6.71787 20.8227 6.71187H14.9165C13.6248 6.71487 13.5288 6.62786 13.4043 5.27919Z" />
    </symbol>

    <symbol id="user"
            viewBox="0 0 28 33"
            preserveAspectRatio="xMidYMid meet"
            xmlns="http://www.w3.org/2000/svg">
        <path d="M0.689405 32.6663C0.136821 32.4046 -0.0102576 31.9546 0.000544798 31.3494C0.110231 25.4878 4.46858 20.2773 10.095 19.3312C10.8007 19.2191 11.5131 19.1576 12.2272 19.1471C13.4911 19.119 14.7574 19.1011 16.0197 19.1471C20.8143 19.3278 24.3242 21.6607 26.6218 25.9386C27.525 27.6212 27.9189 29.4606 27.9979 31.3784C28.022 31.975 27.8466 32.408 27.3098 32.6637L0.689405 32.6663Z" />
        <path d="M13.9955 17.2261C12.3342 17.225 10.7105 16.7185 9.32992 15.7706C7.94932 14.8227 6.87387 13.4761 6.23967 11.901C5.60547 10.3259 5.44101 8.59331 5.76712 6.92236C6.09323 5.2514 6.89524 3.71722 8.07166 2.51396C9.24808 1.3107 10.746 0.49245 12.376 0.162746C14.0059 -0.166958 15.6946 0.00670656 17.2282 0.661763C18.7619 1.31682 20.0717 2.42383 20.9918 3.8427C21.912 5.26157 22.4011 6.92853 22.3973 8.63263C22.3881 10.9131 21.4992 13.0971 19.9248 14.7074C18.3505 16.3176 16.2188 17.2231 13.9955 17.2261Z" />
    </symbol>

    <symbol id="xmark"
            viewBox="0 0 12 12"
            preserveAspectRatio="xMidYMid meet"
            xmlns="http://www.w3.org/2000/svg">
        <path d="M11.3438 10.4336C11.6602 10.7852 11.6602 11.3125 11.3438 11.6289C10.9922 11.9805 10.4648 11.9805 10.1484 11.6289L6 7.44531L1.81641 11.6289C1.46484 11.9805 0.9375 11.9805 0.621094 11.6289C0.269531 11.3125 0.269531 10.7852 0.621094 10.4336L4.80469 6.25L0.621094 2.06641C0.269531 1.71484 0.269531 1.1875 0.621094 0.871094C0.9375 0.519531 1.46484 0.519531 1.78125 0.871094L6 5.08984L10.1836 0.90625C10.5 0.554688 11.0273 0.554688 11.3438 0.90625C11.6953 1.22266 11.6953 1.75 11.3438 2.10156L7.16016 6.25L11.3438 10.4336Z" />
    </symbol>

    <symbol id="plus"
            viewBox="0 0 17 17"
            preserveAspectRatio="xMidYMid meet"
            xmlns="http://www.w3.org/2000/svg">
        <path d="M16.625 8.5C16.625 9.04688 16.1953 9.4375 15.6875 9.4375H9.4375V15.6875C9.4375 16.2344 9.00781 16.6641 8.5 16.6641C7.95312 16.6641 7.5625 16.2344 7.5625 15.6875V9.4375H1.3125C0.765625 9.4375 0.375 9.04688 0.375 8.53906C0.375 7.99219 0.765625 7.5625 1.3125 7.5625H7.5625V1.3125C7.5625 0.804688 7.95312 0.414062 8.5 0.414062C9.00781 0.414062 9.4375 0.804688 9.4375 1.3125V7.5625H15.6875C16.1953 7.5625 16.625 7.99219 16.625 8.5Z" />
    </symbol>

    <symbol id="aim"
            viewBox="0 0 43 43"
            preserveAspectRatio="xMidYMid meet"
            xmlns="http://www.w3.org/2000/svg">
        <path d="M5.43686 23.49L0 23.5388V19.8933L5.33928 19.8445C6.79608 11.752 11.4941 6.93548 19.5239 5.33231L19.4821 0H23.1485L23.1973 5.38807C26.8259 5.83294 30.2116 7.44506 32.8442 9.98152C35.4338 12.5379 37.1072 15.8775 37.605 19.4821L43 19.4333V23.0997L37.605 23.1206C37.1849 26.7451 35.5914 30.1328 33.0673 32.7675C30.5007 35.3739 27.1423 37.0555 23.5179 37.5492L23.5737 43H19.8864L19.8655 37.605C16.2517 37.1761 12.8755 35.5834 10.2464 33.0673C7.6308 30.4927 5.93987 27.1255 5.43686 23.49ZM19.4821 7.33279C13.7734 7.43038 7.42341 13.7106 7.34673 19.7539C8.06747 19.6806 8.79377 19.6806 9.51451 19.7539C10.2379 19.9824 10.938 20.2788 11.6056 20.6392C11.9541 19.0081 12.2608 17.4189 13.2785 16.1294L14.5122 17.147L13.4179 20.5416L16.0318 20.688V22.333L13.4249 22.5002L14.575 25.9854L13.4179 27.0867C12.2538 25.6927 11.9472 24.0267 11.5847 22.5002C10.8815 22.8604 10.1493 23.1612 9.39601 23.3994C8.68346 23.4823 7.96473 23.4986 7.24915 23.4482C7.94618 29.9167 14.1637 35.9042 19.7958 35.6463C19.7225 34.9209 19.7225 34.19 19.7958 33.4646C20.0209 32.7567 20.315 32.0726 20.674 31.4223C19.0499 31.0668 17.4398 30.8298 16.1363 29.7355L17.1191 28.5435L20.6043 29.6309L20.7577 26.8846L22.3957 26.9961L22.6048 29.6379L25.9924 28.4459L27.2819 29.84L22.3469 31.6941C23.8525 32.7745 23.3367 34.3847 23.5876 35.7648C29.9306 35.1096 36.2945 28.4669 35.6045 23.2182C34.8861 23.2914 34.1621 23.2914 33.4437 23.2182C32.7511 22.9757 32.0872 22.6578 31.4641 22.2702C31.0877 23.9501 30.8298 25.5742 29.6727 26.9543L28.5435 25.8181L29.61 22.4166L26.9891 22.2005V20.6113L29.596 20.3882L28.4808 17.0285L29.4985 15.8157C30.7671 17.2098 30.9971 18.8687 31.4571 20.451C32.1027 20.0781 32.7847 19.7721 33.4925 19.5378C34.2112 19.445 34.9376 19.4263 35.6602 19.4821C35.6254 14.1707 29.7215 7.32582 23.2182 7.32582C23.295 8.0487 23.295 8.77769 23.2182 9.50057C22.9972 10.1966 22.7028 10.8672 22.3399 11.5011C23.978 11.9541 25.6369 12.1144 27.017 13.39L25.9645 14.4704L22.4305 13.3621L22.2702 16.0387L20.6252 15.9969L20.4579 13.3761L17.0076 14.561L15.9342 13.4179C17.2934 12.2608 18.9175 11.989 20.9249 11.4314C19.0917 10.344 19.7191 8.71292 19.4821 7.33279Z" />
        <path d="M23.3015 21.4547C23.3016 21.9319 23.115 22.3902 22.7815 22.7315C22.448 23.0728 21.9942 23.27 21.5171 23.2809C21.0393 23.2683 20.585 23.071 20.2496 22.7305C19.9143 22.3899 19.724 21.9326 19.7188 21.4547C19.7392 21.0047 19.9271 20.5785 20.2457 20.26C20.5642 19.9414 20.9904 19.7535 21.4404 19.733C21.6766 19.7199 21.913 19.7544 22.1356 19.8345C22.3582 19.9146 22.5624 20.0387 22.736 20.1993C22.9096 20.3599 23.0492 20.5539 23.1463 20.7695C23.2435 20.9852 23.2963 21.2182 23.3015 21.4547Z" />
    </symbol>

    <symbol id="bomb"
            viewBox="0 0 38 38"
            preserveAspectRatio="xMidYMid meet"
            xmlns="http://www.w3.org/2000/svg">
        <path d="M33.6716 23.1937C30.1652 26.7478 26.7135 30.2064 23.1935 33.7332C22.9547 33.5217 22.6341 33.283 22.3544 33.0033C19.4416 30.0904 16.5833 27.1162 13.5954 24.2783C12.5976 23.3681 11.9279 22.1542 11.6899 20.8247C11.4518 19.4953 11.6588 18.1245 12.2788 16.9246C12.8723 15.4851 13.8459 14.234 15.0956 13.3052C16.3452 12.3763 17.8239 11.8047 19.3733 11.6514C20.0908 11.5306 20.8264 11.5754 21.524 11.7823C22.2215 11.9892 22.8625 12.3527 23.3981 12.8452C26.8635 16.2833 30.2744 19.7828 33.6716 23.1937Z" />
        <path d="M8.30199 0C8.684 0.306976 8.98415 0.497983 9.20927 0.736742C11.4741 2.97425 13.7298 5.22996 15.9764 7.50385C16.2533 7.7731 16.4639 8.10309 16.5913 8.46774C16.7187 8.83238 16.7596 9.22167 16.7106 9.60482C16.6616 9.98797 16.5242 10.3545 16.3091 10.6754C16.0941 10.9962 15.8074 11.2627 15.4716 11.4536C13.7617 12.422 12.3469 13.8367 11.3786 15.5466C11.1862 15.8522 10.9308 16.1131 10.6293 16.3118C10.3278 16.5105 9.98726 16.6424 9.63058 16.6986C9.2739 16.7549 8.90932 16.7341 8.56133 16.6378C8.21334 16.5414 7.88999 16.3717 7.613 16.1401C5.18448 13.7252 2.72867 11.2762 0.320619 8.86819C0.202469 8.6955 0.0953817 8.5155 0 8.32927L7.22416 7.23098L8.30199 0Z" />
        <path d="M24.9473 35.4318L35.4254 24.981C37.7652 26.6659 38.577 29.074 37.5742 31.9595C37.142 33.2848 36.4006 34.4883 35.4113 35.4704C34.4221 36.4526 33.2133 37.1852 31.8849 37.6079C29.3336 38.4947 26.6049 37.9217 24.9473 35.4318Z" />
    </symbol>

    <symbol id="bullets"
            viewBox="0 0 28 37"
            preserveAspectRatio="xMidYMid meet"
            xmlns="http://www.w3.org/2000/svg">
        <path d="M21.4212 15.6127H26.5592C27.4607 17.6847 27.8766 19.9445 27.7737 22.211C27.6602 25.7155 27.7203 29.2268 27.7737 32.7313C27.7737 33.7991 27.8271 34.7847 26.1655 35.4007L28.0006 36.4343C26.8128 37.0298 22.2419 37.1188 20.3135 36.7355L21.568 35.3049C20.2935 34.7779 20.3201 33.7375 20.3335 32.6218C20.3735 28.6519 20.3335 24.6751 20.3335 20.7052C20.2595 19.5174 20.4751 18.3295 20.9607 17.2486C21.1648 16.7197 21.319 16.1719 21.4212 15.6127Z" />
        <path d="M16.4293 15.647C16.7163 16.4684 17.0166 17.2213 17.2368 18.0016C17.4099 18.5885 17.5086 19.1958 17.5304 19.8086C17.5304 24.2508 17.5304 28.7067 17.5637 33.1284C17.5637 34.0935 17.4102 34.8395 16.3092 35.2297L17.557 36.6397C16.5094 37.023 12.4257 37.1051 10.1436 36.7834L11.318 35.305C10.1636 34.7779 10.1769 33.7854 10.1903 32.7314C10.1903 28.8641 10.1903 24.99 10.1903 21.0954C10.1903 19.7264 10.1369 18.3096 10.8575 17.0296C11.0376 16.5775 11.1609 16.1037 11.2246 15.6196L16.4293 15.647Z" />
        <path d="M1.1019 15.5991H6.18659C7.00416 17.4174 7.41238 19.4012 7.38102 21.4034C7.26758 25.2159 7.31429 29.042 7.38102 32.8545C7.38102 33.8881 7.34098 34.7916 6.19993 35.2844L7.35433 36.6533C6.24664 37.0845 1.44222 37.1256 0.0142368 36.7081L1.22869 35.3802C-0.172602 34.7368 0.0142368 33.539 0.0209096 32.3754C0.0209096 28.5629 0.0209096 24.7436 0.0209096 20.9242C-0.0740902 19.6359 0.155705 18.3442 0.688191 17.1733C0.878668 16.6646 1.01731 16.1371 1.1019 15.5991Z" />
        <path d="M24.0431 0C25.7581 4.52434 26.3386 9.19927 26.8924 14.0795C25.0015 14.1938 23.106 14.2052 21.2139 14.1138C21.721 9.22665 22.3482 4.52434 24.0431 0Z" />
        <path d="M3.71778 0C5.37263 4.5175 6.05326 9.1582 6.49367 14.0179H0.841797C1.36228 9.23349 1.97617 4.55172 3.71778 0Z" />
        <path d="M13.8467 0.0341797C15.595 4.53799 16.1755 9.21976 16.716 14.0658H11.0908C11.3882 9.28249 12.3152 4.56246 13.8467 0.0341797Z" />
    </symbol>

    <symbol id="destroy"
            viewBox="0 0 38 36"
            preserveAspectRatio="xMidYMid meet"
            xmlns="http://www.w3.org/2000/svg">
        <path d="M26.9319 26.9491C26.4761 28.7484 26.4557 30.5817 25.3332 32.3131C24.0747 30.8397 24.2584 29.0336 23.5781 27.3768C23.238 28.5243 22.9523 29.4613 22.6054 30.6088C21.6326 29.7125 21.7754 28.6397 21.3196 27.6756C20.9931 28.6397 20.7006 29.5089 20.3468 30.5681C19.4081 29.7669 19.5713 28.7009 19.0679 27.7027C18.7346 28.728 18.4625 29.57 18.1292 30.5817C17.1496 29.794 17.3605 28.7009 16.823 27.7367L15.8911 30.4526H15.4965C15.1972 29.4613 14.8911 28.4632 14.5441 27.3225C13.9251 28.9521 14.0611 30.7174 12.8571 32.2588C11.619 30.6428 11.7006 28.7348 11.1972 26.9762C10.2744 26.8674 9.41291 26.459 8.74547 25.8136C8.07803 25.1683 7.64158 24.3219 7.50331 23.4047C7.40358 23.0315 7.3891 22.6407 7.46092 22.2611C7.53274 21.8815 7.68904 21.5228 7.91828 21.2116C8.80923 19.9905 9.1831 18.4686 8.95909 16.9747C8.81624 15.6167 8.68018 14.218 8.4625 12.8532C8.08154 10.4836 8.67338 8.5213 10.6326 7.00036C13.306 4.92266 16.2516 3.52394 19.6938 3.77517C21.4185 3.8801 23.105 4.32681 24.6549 5.08922C26.2048 5.85163 27.587 6.91448 28.721 8.21575C29.8911 9.57373 29.9115 11.2033 29.6938 12.8804C29.4761 14.5575 29.2924 16.0309 29.1632 17.6333C29.0765 18.7648 29.3528 19.8944 29.9523 20.8585C30.3045 21.3906 30.5207 22.0006 30.5822 22.6353C30.6436 23.27 30.5484 23.9101 30.3047 24.4995C30.0611 25.089 29.6766 25.61 29.1846 26.0169C28.6927 26.4237 28.1085 26.7042 27.4829 26.8336L26.9319 26.9491ZM27.1904 17.8913C26.9863 16.9476 26.8707 16.1871 26.653 15.4606C25.9727 13.023 24.2244 12.2218 21.9319 13.2471C21.0339 13.6477 20.0407 14.1162 19.9727 15.2026C19.9047 16.2889 20.789 17.063 21.721 17.5179C22.7555 17.9726 23.6062 18.7619 24.136 19.7586C24.2259 19.9886 24.3804 20.1878 24.5809 20.3323C24.7814 20.4769 25.0195 20.5606 25.2665 20.5735C25.5135 20.5864 25.759 20.528 25.9736 20.4051C26.1881 20.2822 26.3626 20.1002 26.4761 19.8808C26.7954 19.2495 27.0353 18.5813 27.1904 17.8913ZM14.1972 12.7378C13.5793 12.9725 12.9941 13.2851 12.4557 13.668C11.238 14.7137 10.687 17.966 11.3537 19.4259C11.4674 19.742 11.6733 20.017 11.9448 20.2154C12.2164 20.4138 12.5412 20.5267 12.8775 20.5394C13.5577 20.5394 13.8707 20.132 14.1224 19.582C14.557 18.712 15.2773 18.0171 16.1632 17.613C16.7866 17.2703 17.3367 16.809 17.7822 16.255C17.9189 16.1182 18.0248 15.9538 18.0928 15.7728C18.1608 15.5919 18.1893 15.3986 18.1764 15.2057C18.1635 15.0129 18.1095 14.8251 18.0181 14.6548C17.9267 14.4844 17.7999 14.3355 17.6462 14.218C16.7008 13.3441 15.483 12.8214 14.1972 12.7378ZM19.0679 23.3776C19.2708 23.7476 19.498 24.1037 19.7482 24.4436C19.9562 24.7381 20.2677 24.9437 20.6208 25.0192C20.9738 25.0947 21.3423 25.0346 21.653 24.851C21.9153 24.6755 22.0976 24.4036 22.16 24.0945C22.2225 23.7855 22.16 23.4643 21.9863 23.201C21.4615 22.2127 20.8345 21.282 20.1156 20.424C19.3469 19.5481 18.7074 19.5549 17.9251 20.4647C17.2215 21.3332 16.6041 22.2678 16.0815 23.2554C15.996 23.3855 15.938 23.5317 15.9111 23.6851C15.8843 23.8384 15.8892 23.9956 15.9255 24.147C15.9619 24.2984 16.0288 24.4407 16.1224 24.5653C16.2159 24.6899 16.3339 24.794 16.4693 24.8714C16.7612 25.0358 17.1016 25.0925 17.4312 25.0317C17.7607 24.9709 18.0584 24.7964 18.272 24.5387C18.5509 24.2671 18.7346 23.9072 19.0679 23.3776Z" />
        <path d="M1.83673 31.6205C2.94558 30.2218 3.9932 28.8434 5.10204 27.5466C5.64256 26.9567 6.21724 26.399 6.82313 25.8763L9.9932 29.2712C8.44949 31.2306 6.51531 32.849 4.31293 34.0241C4.61905 34.7031 4.89796 35.2395 5.19728 35.8778C3.30612 35.9592 0.435374 33.2161 0 31.0501C0.836735 30.6903 1.27891 31.5254 1.83673 31.6205Z" />
        <path d="M36.1157 31.6545L38 30.8261C38 32.7613 35.2789 35.613 32.9456 36C33.2381 35.2667 33.4898 34.6421 33.7619 33.9631C31.5459 32.7332 29.5912 31.0842 28.0068 29.1083L31.4082 26.0053C33.3367 27.5586 34.9369 29.4788 36.1157 31.6545Z" />
        <path d="M7.38027 8.82687C4.78164 6.35535 3.55034 3.26595 2.06055 0.271606C3.86327 0.332715 8.96531 3.22521 10.6592 5.14675C10.4551 5.33686 10.251 5.54735 10.0333 5.73068C9.81565 5.91401 9.54354 6.11091 9.27823 6.30103C7.91769 5.1128 6.60476 3.93815 5.27143 2.77029L5.03334 3.00114C5.57755 4.79367 7.35306 5.66278 8.35306 7.16335L7.38027 8.82687Z" />
        <path d="M30.7618 8.77254L29.7618 7.17691C30.755 5.7103 32.4829 4.80724 33.1632 2.87891C31.3128 3.56469 30.3673 5.22822 28.8843 6.3146L27.3809 5.13316C29.8162 2.67522 32.823 1.44625 35.823 0C35.6394 1.98944 32.7754 6.94606 30.7618 8.77254Z" />
    </symbol>

    <symbol id="flag"
            viewBox="0 0 33 37"
            preserveAspectRatio="xMidYMid meet"
            xmlns="http://www.w3.org/2000/svg">
        <path d="M8.63113 0.637907C10.5675 0.0170089 12.6124 -0.153409 14.6198 0.138834C16.6975 0.448119 18.7684 0.841753 20.819 1.25648C24.8114 2.10701 28.7971 2.80993 33 1.0948C32.321 7.36485 31.6896 13.3959 31.0445 19.4832C29.4884 20.3342 27.736 20.7258 25.9793 20.6149C23.338 20.4181 20.7035 19.9752 18.0759 19.5816C16.6568 19.3707 15.2581 19.0192 13.8458 18.7732C11.4552 18.3636 9.00921 18.4593 6.65527 19.0544C7.3071 12.8687 7.95214 6.83063 8.63113 0.637907Z" />
        <path d="M0 35.8472C0.461712 31.5454 0.896265 27.5387 1.35798 23.5391L3.39494 4.729C3.51037 3.67463 3.6258 2.62025 3.72086 1.56587C3.72022 1.27443 3.80138 0.989074 3.95446 0.74449C4.10755 0.499907 4.32597 0.306627 4.58317 0.188145C5.77819 -0.346074 6.78989 0.349817 6.64051 1.68536C6.36212 4.53219 6.043 7.37901 5.73745 10.2258C4.83214 18.5484 3.92682 26.871 3.0215 35.1935C2.87891 36.501 2.39683 37.0071 1.3444 37C0.291965 36.993 0 36.5502 0 35.8472Z" />
    </symbol>

    <symbol id="jetton"
            viewBox="0 0 38 36"
            preserveAspectRatio="xMidYMid meet"
            xmlns="http://www.w3.org/2000/svg">
        <path d="M14.629 0C18.8828 0.148919 22.9806 1.59823 26.3419 4.1426C26.9303 4.5934 27.4735 5.09759 27.9642 5.64839C28.5014 6.2146 28.8545 6.92314 28.979 7.68463C29.1034 8.44613 28.9936 9.22647 28.6635 9.92726C25.7265 17.6492 22.8432 25.3712 20.0134 33.0931C19.7939 33.8666 19.3271 34.5518 18.6808 35.0493C18.0345 35.5467 17.2423 35.8305 16.4192 35.8594C13.6793 36.1273 10.9126 35.8041 8.31538 34.9127C5.71821 34.0212 3.35435 32.5835 1.39172 30.7016C-0.00683279 29.3525 -0.377449 27.7922 0.398747 25.7959C3.30774 18.351 6.10484 10.8562 8.79006 3.31136C9.65017 0.99477 11.1816 0.109016 13.5242 0C13.8948 0 14.2654 0 14.629 0ZM20.7687 17.974C20.7687 16.9315 20.1463 16.7135 19.5449 16.5023C16.7478 15.5166 13.9717 14.5377 11.2165 13.5657C10.0837 13.1705 9.58024 13.2727 9.29354 13.8927C9.00684 14.5127 9.3355 15.0033 10.5732 15.4462C13.3004 16.4273 16.0276 17.3812 18.7547 18.3419C19.0484 18.4441 19.3981 18.6485 19.6498 18.5736C20.0475 18.4297 20.4237 18.235 20.7687 17.9944V17.974ZM7.35655 20.679C7.09781 20.9174 6.65727 21.1559 6.51741 21.5102C6.27966 22.0757 6.64328 22.4982 7.21669 22.6958C10.2795 23.7995 13.3447 24.892 16.4122 25.973C16.5412 26.0414 16.6832 26.0832 16.8294 26.0961C16.9757 26.109 17.1231 26.0926 17.2626 26.0479C17.4021 26.0033 17.5308 25.9313 17.6406 25.8364C17.7505 25.7415 17.8394 25.6257 17.9016 25.4961C18.1743 24.9646 17.8527 24.4536 17.0695 24.0925C16.9296 24.0312 16.7758 23.9767 16.6289 23.9222L8.44742 21.0401L7.35655 20.679ZM17.7268 20.679C17.2373 20.2565 16.9646 19.8477 16.58 19.7046C14.1815 18.8121 11.762 17.9672 9.34948 17.1223C9.22172 17.0523 9.0799 17.0102 8.93381 16.9988C8.78772 16.9874 8.64082 17.0069 8.50324 17.0561C8.36565 17.1054 8.24066 17.1831 8.13686 17.2839C8.03306 17.3847 7.95293 17.5062 7.90198 17.6401C7.63626 18.2874 7.99289 18.7371 8.60126 18.962C11.0627 19.8704 13.5265 20.7448 15.9926 21.5852C16.1822 21.6754 16.4004 21.69 16.601 21.626C16.9967 21.3416 17.3728 21.032 17.7268 20.6994V20.679ZM12.755 27.254C12.5871 27.0973 12.3494 26.7089 12.0067 26.5726C10.1467 25.8913 8.2656 25.2099 6.41252 24.5286C6.28863 24.4795 6.15555 24.4562 6.02185 24.4602C5.88816 24.4642 5.75681 24.4955 5.63626 24.5519C5.51571 24.6084 5.40864 24.6889 5.32194 24.7881C5.23524 24.8874 5.17082 25.0032 5.13285 25.1282C5.07626 25.2464 5.04716 25.3753 5.04764 25.5057C5.04812 25.6362 5.07815 25.7649 5.13561 25.8827C5.19306 26.0005 5.2765 26.1045 5.37998 26.1873C5.48347 26.27 5.60443 26.3295 5.73422 26.3614C7.65024 27.0428 9.57325 27.7718 11.5172 28.4055C12.1606 28.6167 12.8109 28.0648 12.755 27.254ZM21.1043 5.82554C21.1169 5.55586 21.0728 5.28653 20.9747 5.03405C20.8767 4.78156 20.7268 4.55125 20.5341 4.35721C20.3415 4.16318 20.1103 4.00951 19.8545 3.90563C19.5988 3.80176 19.324 3.74985 19.047 3.7531C18.77 3.75636 18.4965 3.8147 18.2435 3.92455C17.9904 4.0344 17.763 4.19345 17.5752 4.39195C17.3875 4.59045 17.2433 4.82422 17.1515 5.07893C17.0597 5.33364 17.0223 5.60393 17.0415 5.87323C17.0776 6.37818 17.3104 6.85058 17.6924 7.19362C18.0744 7.53666 18.5766 7.72437 19.096 7.71827C19.6155 7.71217 20.1129 7.51273 20.4863 7.16082C20.8596 6.80892 21.0808 6.33119 21.1043 5.82554V5.82554Z" />
        <path d="M20.5518 35.655C21.9503 31.9212 23.2929 28.351 24.6285 24.7534C26.3977 20.0249 28.1249 15.2895 29.936 10.5609C30.4804 9.42897 30.6678 8.1651 30.4745 6.92932C30.5934 7.15417 30.7262 7.36538 30.8241 7.61067C30.922 7.85596 30.992 8.09443 31.0829 8.33971C33.2296 14.0835 35.2785 19.8545 37.5582 25.5642C38.4253 27.7582 38.0197 29.4956 36.3134 31.015C34.3768 32.7724 32.086 34.1179 29.5868 34.9659C27.0875 35.814 24.4345 36.1461 21.7965 35.9412C21.3751 35.875 20.9591 35.7794 20.5518 35.655V35.655Z" />
        <path d="M29.817 5.81876C28.0059 3.13425 25.3067 1.58077 22.125 0.163564C24.076 -0.11579 25.6773 -0.081722 27.1668 0.626881C27.7936 0.903269 28.3166 1.36285 28.6632 1.94189C29.1943 3.15324 29.6611 4.39039 30.0618 5.64843L29.817 5.81876Z" />
    </symbol>

    <symbol id="swords"
            viewBox="0 0 38 37"
            preserveAspectRatio="xMidYMid meet"
            xmlns="http://www.w3.org/2000/svg">
        <path d="M1.94922 0C5.05715 1.4608 7.9538 2.6364 10.1757 4.86934C15.7986 10.4899 21.3261 16.2079 26.8876 21.8911C26.9882 22.0177 27.0815 22.1501 27.1671 22.2877L25.8994 23.6511C25.47 23.2476 25.0883 22.9554 24.7339 22.5589C18.9497 16.6601 13.1609 10.7636 7.36765 4.86934C6.67099 4.19238 5.9003 3.59952 5.07078 3.10246C5.32858 4.10752 5.8946 5.00208 6.68609 5.65539L23.8547 23.1433C24.2432 23.5467 24.618 23.9641 25.0679 24.4441L23.8206 25.8353C23.5316 25.6186 23.254 25.3864 22.9891 25.1397C17.6093 19.686 12.2476 14.2277 6.90419 8.76481C5.26844 7.08836 3.33279 3.67287 1.94922 0Z" />
        <path d="M23.5008 16.521L22.2876 15.0393C22.6488 14.6428 23.01 14.2255 23.3985 13.829C26.0839 11.0813 28.7897 8.34747 31.4546 5.56499C32.1095 4.85009 32.6854 4.06397 33.1721 3.22076C32.228 3.4485 31.3843 3.9891 30.773 4.75807L22.5943 13.1055C22.2399 13.4672 21.8582 13.8011 21.347 14.2881L20.1475 12.8968C20.4065 12.5838 20.6382 12.2499 20.9176 11.9647C23.1259 9.69697 25.3205 7.41534 27.5697 5.17545C29.8189 2.93555 32.8995 1.55127 35.7962 0.146118L36.0756 0.368716C35.5713 1.42606 35.0737 2.45557 34.5762 3.53378C33.4561 5.96138 31.9003 8.15329 29.9892 9.99609C28.1831 11.7143 26.4928 13.5507 24.7412 15.3245C24.4072 15.6863 24.0256 15.9993 23.5008 16.521Z" />
        <path d="M28.0059 29.9673C29.1304 28.8543 30.1528 27.8317 31.2978 26.684C33.2804 28.2888 34.9222 30.2888 36.1233 32.5619L37.9976 31.6994C38.0998 33.6054 35.394 36.5131 33.1721 37C32.8518 36.1792 33.6492 35.6992 33.7787 34.9549C31.5571 33.6881 29.5968 31.9944 28.0059 29.9673Z" />
        <path d="M6.74067 26.6144L10.0667 30.0021C8.48435 32.023 6.52147 33.6999 4.29385 34.9341L5.17307 36.9513C3.0057 36.7357 0.184022 33.8558 0 31.6507L1.8743 32.5272C2.55586 31.5046 3.27151 30.4404 4.08257 29.4317C4.89363 28.4231 5.841 27.5605 6.74067 26.6144Z" />
        <path d="M24.5901 31.0594C23.227 31.1012 22.4228 29.8908 22.9135 28.8752C23.1214 28.5154 23.381 28.1894 23.6837 27.9083C25.5239 25.9977 27.3709 24.1148 29.2248 22.2599C30.288 21.1886 31.1468 21.0425 31.8761 21.7729C32.6053 22.5033 32.4554 23.3659 31.3921 24.465C29.5178 26.3988 27.6367 28.3257 25.7352 30.2247C25.3791 30.5378 24.9958 30.8172 24.5901 31.0594Z" />
        <path d="M15.3218 29.216C15.3218 30.6073 14.1563 31.3933 13.1612 30.8786C12.892 30.7292 12.648 30.5366 12.4387 30.3082C10.4758 28.3233 8.51748 26.3362 6.56366 24.3467C6.4112 24.1981 6.2678 24.0402 6.13427 23.8737C5.87603 23.5758 5.74157 23.187 5.75938 22.7896C5.77719 22.3923 5.94588 22.0177 6.22969 21.7451C6.51175 21.4736 6.88479 21.3224 7.27249 21.3224C7.66018 21.3224 8.03322 21.4736 8.31528 21.7451C8.47484 21.8755 8.62516 22.0173 8.76511 22.1694C10.6871 24.1311 12.6159 26.0788 14.5107 28.0613C14.818 28.4177 15.0897 28.8045 15.3218 29.216Z" />
        <path d="M14.796 18.8513L15.7298 19.7069L12.1788 23.5815L10.9043 22.3433L14.796 18.8513Z" />
        <path d="M14.1695 25.7379L13.0518 24.5623C14.3467 23.3241 15.5463 22.1625 16.8344 20.9243L18.0204 22.1555L14.1695 25.7379Z" />
    </symbol>

    <symbol id="medal"
            viewBox="0 0 24 38"
            preserveAspectRatio="xMidYMid meet"
            xmlns="http://www.w3.org/2000/svg">
        <path d="M24 23.5061C22.3525 25.1885 21.0008 26.7399 19.4744 28.0914C18.9559 28.5002 18.5748 29.0648 18.3844 29.7063C18.1939 30.3479 18.2035 31.0344 18.4119 31.6701C18.8154 33.4422 19.0373 35.2488 19.3264 37.0484C19.3438 37.3654 19.3438 37.683 19.3264 38C18.5127 37.5725 17.847 37.2415 17.1947 36.8898C15.8027 36.1382 14.3973 35.4142 13.0255 34.6213C12.7049 34.4158 12.3344 34.3068 11.9563 34.3068C11.5782 34.3068 11.2077 34.4158 10.8871 34.6213C9.33371 35.5039 7.75343 36.3313 6.17988 37.1725C5.73606 37.4139 5.27879 37.6276 4.66013 37.9379C4.64912 37.519 4.66485 37.0998 4.7072 36.683C5.02326 34.7316 5.33259 32.7802 5.70916 30.8496C5.81569 30.4501 5.80901 30.0279 5.68991 29.6322C5.57082 29.2365 5.34423 28.8838 5.03671 28.6155C3.68507 27.3812 2.42757 26.0918 1.16335 24.8231C0.806949 24.4576 0.47072 24.0853 0 23.5819C0.361814 23.4432 0.73255 23.3303 1.10955 23.244C3.01261 22.9406 4.91566 22.5959 6.82544 22.389C7.27361 22.3572 7.70304 22.1922 8.06128 21.9142C8.41953 21.6363 8.69109 21.2574 8.84281 20.8238C9.65649 19.031 10.5307 17.2727 11.3914 15.5075C11.5798 15.1912 11.7841 14.8851 12.0034 14.5904C12.3396 15.2386 12.6018 15.7213 12.8439 16.2177C13.5904 17.7485 14.3637 19.2723 15.0563 20.8307C15.2106 21.2686 15.4876 21.6501 15.8524 21.9273C16.2173 22.2045 16.6538 22.3651 17.1073 22.389C19.0238 22.6028 20.9201 22.9475 22.8299 23.2371C23.1393 23.2854 23.4217 23.3681 24 23.5061Z" />
        <path d="M13.9739 15.1697C12.5012 12.6943 11.5262 12.7011 9.93916 15.1697L7.72005 12.9011C6.5567 11.722 5.3799 10.5567 4.27707 9.34314C3.92139 8.99752 3.6853 8.54242 3.60461 8.04682C3.53064 5.39902 3.56426 2.75812 3.56426 0H20.3757V2.75812C20.3757 4.42678 20.3757 6.08855 20.3757 7.75722C20.3892 8.21103 20.2516 8.65604 19.9857 9.01906C18.0557 11.0325 16.0585 13.0459 13.9739 15.1697Z" />
    </symbol>


</svg>

<svg>
    <use href="#medal"
         width="100"
         height="100"
         fill="#FFB81C" />
</svg>
